<svg id="Layer_1" data-name="Layer 1" xmlns="http://www.w3.org/2000/svg" viewBox="0 0 246.28 48.32"><defs><style>.cls-1{fill:#fff;}</style></defs><path class="cls-1" d="M57.39,10.59C29.16,1.52,3.55,9.05,1.72,41.23c0,0,0,0,0,0,18.35,7.58,22.76-25,40.74-27.32,0,0,0,0,0,.05C25.64,19.87,25.83,45.65,6.29,46.52a0,0,0,0,0,0,0c24.51,12.66,29.54-5.82,39.09-23.7,3.84-6.71,5-10.21,12-12.23A0,0,0,1,0,57.39,10.59Z" transform="translate(-1.72 -2.43)"/><path class="cls-1" d="M64.78,16.69a21.26,21.26,0,0,1,14,5V46.4H71.28V41.3a9.79,9.79,0,0,1-8.74,5.52c-8.32,0-13-6.15-13-14.75S55,16.69,64.78,16.69ZM64,40.39c4.47,0,7.27-4,7.27-11.25V24.59A11,11,0,0,0,65.13,23c-5.25,0-7.83,4.2-7.83,9.16C57.3,36.76,59.26,40.39,64,40.39Z" transform="translate(-1.72 -2.43)"/><path class="cls-1" d="M90.36,11.94c-2.44,0-4.47-1.47-4.47-4s2-3.77,4.47-3.77S94.84,5.57,94.84,8,92.88,11.94,90.36,11.94Zm-3.84,5.24h7.69V46.4H86.52Z" transform="translate(-1.72 -2.43)"/><path class="cls-1" d="M109.52,36.69V46.4H101.9V17.18h7.62v4.61c.63-2.23,3.49-5,7.41-5.1a9.17,9.17,0,0,1,2,0c-.28,1.4-.77,5.52-1,6.92C110.5,23.47,109.52,28.93,109.52,36.69Z" transform="translate(-1.72 -2.43)"/><path class="cls-1" d="M135.59,16.69a21.3,21.3,0,0,1,14.06,5V46.4h-7.56V41.3a9.78,9.78,0,0,1-8.73,5.52c-8.32,0-13-6.15-13-14.75S125.8,16.69,135.59,16.69Zm-.77,23.7c4.48,0,7.27-4,7.27-11.25V24.59A11,11,0,0,0,135.94,23c-5.24,0-7.83,4.2-7.83,9.16C128.11,36.76,130.07,40.39,134.82,40.39Z" transform="translate(-1.72 -2.43)"/><path class="cls-1" d="M176.84,30.81c0-5.1-1.47-7.83-5.53-7.83s-6.64,3.92-6.64,9.16V46.4h-7.62V17.18h7.62v4.47a10.54,10.54,0,0,1,8.74-5c7.69,0,11.19,4.68,11.19,13.77V46.4h-7.76Z" transform="translate(-1.72 -2.43)"/><path class="cls-1" d="M190.4,32.07c0-8.46,5.31-15.31,14-15.31A17.94,17.94,0,0,1,212,18.65V4l7.55-1.61c.07.07,0,14.47,0,44H212v-5a10.09,10.09,0,0,1-8.95,5.45C195,46.82,190.4,40.67,190.4,32.07Zm14.26,8.32c4.33,0,7.34-4,7.34-11.25v-4A10.41,10.41,0,0,0,205.71,23c-4.9,0-7.55,4.2-7.55,9.16C198.16,36.76,200,40.39,204.66,40.39Z" transform="translate(-1.72 -2.43)"/><path class="cls-1" d="M236.81,22.63c-2.09,0-3.49,1-3.49,2.45,0,4.75,14.68,2.59,14.68,12.65,0,5.53-4.54,9.16-11.47,9.16a21.6,21.6,0,0,1-11.95-3.7l3.77-5.25a15,15,0,0,0,7.7,2.8c2.44,0,4.19-1.05,4.19-2.87,0-5.17-14.33-2.58-14.33-12.86,0-5.17,4.12-8.39,10.55-8.39a19.61,19.61,0,0,1,9.72,2.73L245,25.29A15.94,15.94,0,0,0,236.81,22.63Z" transform="translate(-1.72 -2.43)"/></svg>